<mxfile host="app.diagrams.net" modified="2022-06-11T02:27:11.258Z" agent="5.0 (Windows NT 10.0; Win64; x64) AppleWebKit/537.36 (KHTML, like Gecko) Chrome/102.0.0.0 Safari/537.36" etag="hj71DUGgwdoWg5vuudGq" version="19.0.3" type="github">
  <diagram id="CiIdyIM88pYDMpZTxhpQ" name="Page-1">
    <mxGraphModel dx="1865" dy="1716" grid="1" gridSize="10" guides="1" tooltips="1" connect="1" arrows="1" fold="1" page="1" pageScale="1" pageWidth="827" pageHeight="1169" math="0" shadow="0">
      <root>
        <mxCell id="0" />
        <mxCell id="1" parent="0" />
        <mxCell id="9mC6WxwAKgtIo9bbNM0V-1" value="" style="rounded=0;whiteSpace=wrap;html=1;shadow=0;gradientColor=none;" vertex="1" parent="1">
          <mxGeometry x="-120" y="-40" width="1040" height="820" as="geometry" />
        </mxCell>
        <mxCell id="9mC6WxwAKgtIo9bbNM0V-2" value="" style="rounded=1;whiteSpace=wrap;html=1;fillColor=#dae8fc;strokeColor=#6c8ebf;" vertex="1" parent="1">
          <mxGeometry x="-120" y="-30" width="390" height="250" as="geometry" />
        </mxCell>
        <mxCell id="9mC6WxwAKgtIo9bbNM0V-3" value="" style="rounded=1;whiteSpace=wrap;html=1;fillColor=#e1d5e7;strokeColor=#9673a6;" vertex="1" parent="1">
          <mxGeometry x="294" y="-30" width="286" height="250" as="geometry" />
        </mxCell>
        <mxCell id="9mC6WxwAKgtIo9bbNM0V-4" value="" style="rounded=1;whiteSpace=wrap;html=1;fillColor=#dae8fc;strokeColor=#6c8ebf;" vertex="1" parent="1">
          <mxGeometry x="600" y="-30" width="300" height="250" as="geometry" />
        </mxCell>
        <mxCell id="9mC6WxwAKgtIo9bbNM0V-6" value="&lt;span style=&quot;font-size: 14px;&quot;&gt;E-shop App&lt;/span&gt;" style="text;html=1;resizable=0;autosize=1;align=center;verticalAlign=middle;points=[];fillColor=none;strokeColor=none;rounded=0;shadow=0;" vertex="1" parent="1">
          <mxGeometry x="20" y="-20" width="90" height="20" as="geometry" />
        </mxCell>
        <mxCell id="9mC6WxwAKgtIo9bbNM0V-7" value="&lt;span style=&quot;font-size: 14px;&quot;&gt;Internal Blog App&lt;/span&gt;" style="text;html=1;resizable=0;autosize=1;align=center;verticalAlign=middle;points=[];fillColor=none;strokeColor=none;rounded=0;shadow=0;" vertex="1" parent="1">
          <mxGeometry x="377" y="-20" width="120" height="20" as="geometry" />
        </mxCell>
        <mxCell id="9mC6WxwAKgtIo9bbNM0V-8" value="&lt;span style=&quot;font-size: 14px;&quot;&gt;Admin panel App&lt;/span&gt;" style="text;html=1;resizable=0;autosize=1;align=center;verticalAlign=middle;points=[];fillColor=none;strokeColor=none;rounded=0;shadow=0;" vertex="1" parent="1">
          <mxGeometry x="680" y="-20" width="120" height="20" as="geometry" />
        </mxCell>
        <mxCell id="9mC6WxwAKgtIo9bbNM0V-9" value="" style="rounded=0;whiteSpace=wrap;html=1;shadow=0;fontSize=14;" vertex="1" parent="1">
          <mxGeometry x="-90" y="10" width="150" height="30" as="geometry" />
        </mxCell>
        <mxCell id="9mC6WxwAKgtIo9bbNM0V-12" value="" style="rounded=0;whiteSpace=wrap;html=1;shadow=0;fontSize=14;" vertex="1" parent="1">
          <mxGeometry x="80" y="10" width="150" height="30" as="geometry" />
        </mxCell>
        <mxCell id="9mC6WxwAKgtIo9bbNM0V-13" value="" style="rounded=0;whiteSpace=wrap;html=1;shadow=0;fontSize=14;" vertex="1" parent="1">
          <mxGeometry x="80" y="50" width="150" height="30" as="geometry" />
        </mxCell>
        <mxCell id="9mC6WxwAKgtIo9bbNM0V-14" value="" style="rounded=0;whiteSpace=wrap;html=1;shadow=0;fontSize=14;" vertex="1" parent="1">
          <mxGeometry x="80" y="90" width="150" height="30" as="geometry" />
        </mxCell>
        <mxCell id="9mC6WxwAKgtIo9bbNM0V-15" value="" style="rounded=0;whiteSpace=wrap;html=1;shadow=0;fontSize=14;" vertex="1" parent="1">
          <mxGeometry x="80" y="130" width="150" height="30" as="geometry" />
        </mxCell>
        <mxCell id="9mC6WxwAKgtIo9bbNM0V-17" value="" style="rounded=0;whiteSpace=wrap;html=1;shadow=0;fontSize=14;" vertex="1" parent="1">
          <mxGeometry x="-90" y="50" width="150" height="30" as="geometry" />
        </mxCell>
        <mxCell id="9mC6WxwAKgtIo9bbNM0V-18" value="" style="rounded=0;whiteSpace=wrap;html=1;shadow=0;fontSize=14;" vertex="1" parent="1">
          <mxGeometry x="-90" y="90" width="150" height="30" as="geometry" />
        </mxCell>
        <mxCell id="9mC6WxwAKgtIo9bbNM0V-19" value="&lt;span style=&quot;font-size: 10px;&quot;&gt;User Order history Component&lt;/span&gt;" style="text;html=1;resizable=0;autosize=1;align=center;verticalAlign=middle;points=[];fillColor=none;strokeColor=none;rounded=0;shadow=0;" vertex="1" parent="1">
          <mxGeometry x="-95" y="15" width="150" height="20" as="geometry" />
        </mxCell>
        <mxCell id="9mC6WxwAKgtIo9bbNM0V-20" value="&lt;span style=&quot;font-size: 10px;&quot;&gt;CheckOut Component&lt;/span&gt;" style="text;html=1;resizable=0;autosize=1;align=center;verticalAlign=middle;points=[];fillColor=none;strokeColor=none;rounded=0;shadow=0;" vertex="1" parent="1">
          <mxGeometry x="-70" y="55" width="110" height="20" as="geometry" />
        </mxCell>
        <mxCell id="9mC6WxwAKgtIo9bbNM0V-21" value="&lt;span style=&quot;font-size: 10px;&quot;&gt;Cart Component&lt;/span&gt;" style="text;html=1;resizable=0;autosize=1;align=center;verticalAlign=middle;points=[];fillColor=none;strokeColor=none;rounded=0;shadow=0;" vertex="1" parent="1">
          <mxGeometry x="-60" y="90" width="90" height="20" as="geometry" />
        </mxCell>
        <mxCell id="9mC6WxwAKgtIo9bbNM0V-22" value="&lt;span style=&quot;font-size: 10px;&quot;&gt;E-shop Home Component&lt;/span&gt;" style="text;html=1;resizable=0;autosize=1;align=center;verticalAlign=middle;points=[];fillColor=none;strokeColor=none;rounded=0;shadow=0;" vertex="1" parent="1">
          <mxGeometry x="90" y="15" width="130" height="20" as="geometry" />
        </mxCell>
        <mxCell id="9mC6WxwAKgtIo9bbNM0V-23" value="&lt;span style=&quot;font-size: 10px;&quot;&gt;Featured product Banner &lt;br&gt;Component&lt;/span&gt;" style="text;html=1;resizable=0;autosize=1;align=center;verticalAlign=middle;points=[];fillColor=none;strokeColor=none;rounded=0;shadow=0;" vertex="1" parent="1">
          <mxGeometry x="90" y="45" width="130" height="40" as="geometry" />
        </mxCell>
        <mxCell id="9mC6WxwAKgtIo9bbNM0V-24" value="&lt;span style=&quot;font-size: 10px;&quot;&gt;Categories List Banner&lt;br&gt;Component&lt;br&gt;&lt;/span&gt;" style="text;html=1;resizable=0;autosize=1;align=center;verticalAlign=middle;points=[];fillColor=none;strokeColor=none;rounded=0;shadow=0;" vertex="1" parent="1">
          <mxGeometry x="95" y="85" width="120" height="40" as="geometry" />
        </mxCell>
        <mxCell id="9mC6WxwAKgtIo9bbNM0V-25" value="&lt;span style=&quot;font-size: 10px;&quot;&gt;Product List Component&lt;/span&gt;" style="text;html=1;resizable=0;autosize=1;align=center;verticalAlign=middle;points=[];fillColor=none;strokeColor=none;rounded=0;shadow=0;" vertex="1" parent="1">
          <mxGeometry x="95" y="135" width="120" height="20" as="geometry" />
        </mxCell>
        <mxCell id="9mC6WxwAKgtIo9bbNM0V-28" value="" style="rounded=0;whiteSpace=wrap;html=1;shadow=0;fontSize=14;" vertex="1" parent="1">
          <mxGeometry x="80" y="170" width="150" height="30" as="geometry" />
        </mxCell>
        <mxCell id="9mC6WxwAKgtIo9bbNM0V-29" value="&lt;span style=&quot;font-size: 10px;&quot;&gt;Product detail Component&lt;/span&gt;" style="text;html=1;resizable=0;autosize=1;align=center;verticalAlign=middle;points=[];fillColor=none;strokeColor=none;rounded=0;shadow=0;" vertex="1" parent="1">
          <mxGeometry x="95" y="175" width="130" height="20" as="geometry" />
        </mxCell>
        <mxCell id="9mC6WxwAKgtIo9bbNM0V-30" value="" style="rounded=0;whiteSpace=wrap;html=1;shadow=0;fontSize=14;" vertex="1" parent="1">
          <mxGeometry x="345.5" y="10" width="183" height="30" as="geometry" />
        </mxCell>
        <mxCell id="9mC6WxwAKgtIo9bbNM0V-32" value="" style="rounded=0;whiteSpace=wrap;html=1;shadow=0;fontSize=14;" vertex="1" parent="1">
          <mxGeometry x="345.5" y="45" width="183" height="30" as="geometry" />
        </mxCell>
        <mxCell id="9mC6WxwAKgtIo9bbNM0V-33" value="" style="rounded=0;whiteSpace=wrap;html=1;shadow=0;fontSize=14;" vertex="1" parent="1">
          <mxGeometry x="345.5" y="80" width="183" height="30" as="geometry" />
        </mxCell>
        <mxCell id="9mC6WxwAKgtIo9bbNM0V-34" value="" style="rounded=0;whiteSpace=wrap;html=1;shadow=0;fontSize=14;" vertex="1" parent="1">
          <mxGeometry x="658.5" y="10" width="183" height="30" as="geometry" />
        </mxCell>
        <mxCell id="9mC6WxwAKgtIo9bbNM0V-35" value="" style="rounded=0;whiteSpace=wrap;html=1;shadow=0;fontSize=14;" vertex="1" parent="1">
          <mxGeometry x="345.5" y="120" width="183" height="30" as="geometry" />
        </mxCell>
        <mxCell id="9mC6WxwAKgtIo9bbNM0V-36" value="" style="rounded=0;whiteSpace=wrap;html=1;shadow=0;fontSize=14;" vertex="1" parent="1">
          <mxGeometry x="658.5" y="45" width="183" height="30" as="geometry" />
        </mxCell>
        <mxCell id="9mC6WxwAKgtIo9bbNM0V-37" value="" style="rounded=0;whiteSpace=wrap;html=1;shadow=0;fontSize=14;" vertex="1" parent="1">
          <mxGeometry x="658.5" y="80" width="183" height="30" as="geometry" />
        </mxCell>
        <mxCell id="9mC6WxwAKgtIo9bbNM0V-38" value="" style="rounded=0;whiteSpace=wrap;html=1;shadow=0;fontSize=14;" vertex="1" parent="1">
          <mxGeometry x="658.5" y="115" width="183" height="30" as="geometry" />
        </mxCell>
        <mxCell id="9mC6WxwAKgtIo9bbNM0V-39" value="&lt;span style=&quot;font-size: 10px;&quot;&gt;Blog Home Component&lt;/span&gt;" style="text;html=1;resizable=0;autosize=1;align=center;verticalAlign=middle;points=[];fillColor=none;strokeColor=none;rounded=0;shadow=0;" vertex="1" parent="1">
          <mxGeometry x="372" y="15" width="120" height="20" as="geometry" />
        </mxCell>
        <mxCell id="9mC6WxwAKgtIo9bbNM0V-40" value="&lt;span style=&quot;font-size: 10px;&quot;&gt;Post List Component&lt;/span&gt;" style="text;html=1;resizable=0;autosize=1;align=center;verticalAlign=middle;points=[];fillColor=none;strokeColor=none;rounded=0;shadow=0;" vertex="1" parent="1">
          <mxGeometry x="382" y="50" width="110" height="20" as="geometry" />
        </mxCell>
        <mxCell id="9mC6WxwAKgtIo9bbNM0V-41" value="&lt;span style=&quot;font-size: 10px;&quot;&gt;Post Service Component&lt;/span&gt;" style="text;html=1;resizable=0;autosize=1;align=center;verticalAlign=middle;points=[];fillColor=none;strokeColor=none;rounded=0;shadow=0;" vertex="1" parent="1">
          <mxGeometry x="372" y="85" width="130" height="20" as="geometry" />
        </mxCell>
        <mxCell id="9mC6WxwAKgtIo9bbNM0V-42" value="&lt;span style=&quot;font-size: 10px;&quot;&gt;Add Product &amp;amp; Cart From&amp;nbsp; + Table&lt;/span&gt;" style="text;html=1;resizable=0;autosize=1;align=center;verticalAlign=middle;points=[];fillColor=none;strokeColor=none;rounded=0;shadow=0;" vertex="1" parent="1">
          <mxGeometry x="665" y="15" width="170" height="20" as="geometry" />
        </mxCell>
        <mxCell id="9mC6WxwAKgtIo9bbNM0V-43" value="&lt;span style=&quot;font-size: 10px;&quot;&gt;Edit Order Form + Table&lt;/span&gt;" style="text;html=1;resizable=0;autosize=1;align=center;verticalAlign=middle;points=[];fillColor=none;strokeColor=none;rounded=0;shadow=0;" vertex="1" parent="1">
          <mxGeometry x="690" y="50" width="120" height="20" as="geometry" />
        </mxCell>
        <mxCell id="9mC6WxwAKgtIo9bbNM0V-44" value="&lt;span style=&quot;font-size: 10px;&quot;&gt;Add User Form&amp;nbsp; + Table&lt;/span&gt;" style="text;html=1;resizable=0;autosize=1;align=center;verticalAlign=middle;points=[];fillColor=none;strokeColor=none;rounded=0;shadow=0;" vertex="1" parent="1">
          <mxGeometry x="690" y="85" width="120" height="20" as="geometry" />
        </mxCell>
        <mxCell id="9mC6WxwAKgtIo9bbNM0V-45" value="&lt;span style=&quot;font-size: 10px;&quot;&gt;Banner + Slider Content Edit&lt;/span&gt;" style="text;html=1;resizable=0;autosize=1;align=center;verticalAlign=middle;points=[];fillColor=none;strokeColor=none;rounded=0;shadow=0;" vertex="1" parent="1">
          <mxGeometry x="680" y="120" width="140" height="20" as="geometry" />
        </mxCell>
        <mxCell id="9mC6WxwAKgtIo9bbNM0V-46" value="" style="rounded=0;whiteSpace=wrap;html=1;shadow=0;fontSize=10;fillColor=#f5f5f5;strokeColor=#666666;gradientColor=#b3b3b3;" vertex="1" parent="1">
          <mxGeometry x="-113.5" y="360" width="230" height="350" as="geometry" />
        </mxCell>
        <mxCell id="9mC6WxwAKgtIo9bbNM0V-47" value="" style="rounded=0;whiteSpace=wrap;html=1;shadow=0;fontSize=10;fillColor=#dae8fc;strokeColor=#6c8ebf;gradientColor=#7ea6e0;" vertex="1" parent="1">
          <mxGeometry x="146" y="360" width="230" height="350" as="geometry" />
        </mxCell>
        <mxCell id="9mC6WxwAKgtIo9bbNM0V-48" value="" style="rounded=0;whiteSpace=wrap;html=1;shadow=0;fontSize=10;fillColor=#f8cecc;strokeColor=#b85450;gradientColor=#ea6b66;" vertex="1" parent="1">
          <mxGeometry x="405" y="360" width="230" height="350" as="geometry" />
        </mxCell>
        <mxCell id="9mC6WxwAKgtIo9bbNM0V-49" value="" style="rounded=0;whiteSpace=wrap;html=1;shadow=0;fontSize=10;fillColor=#e6d0de;strokeColor=#996185;gradientColor=#d5739d;" vertex="1" parent="1">
          <mxGeometry x="665" y="360" width="230" height="350" as="geometry" />
        </mxCell>
        <mxCell id="9mC6WxwAKgtIo9bbNM0V-50" value="Banner" style="rounded=0;whiteSpace=wrap;html=1;shadow=0;fontSize=14;" vertex="1" parent="1">
          <mxGeometry x="-88" y="387" width="183" height="30" as="geometry" />
        </mxCell>
        <mxCell id="9mC6WxwAKgtIo9bbNM0V-52" value="Slider" style="rounded=0;whiteSpace=wrap;html=1;shadow=0;fontSize=14;" vertex="1" parent="1">
          <mxGeometry x="-87.5" y="427" width="183" height="30" as="geometry" />
        </mxCell>
        <mxCell id="9mC6WxwAKgtIo9bbNM0V-53" value="Carousel" style="rounded=0;whiteSpace=wrap;html=1;shadow=0;fontSize=14;" vertex="1" parent="1">
          <mxGeometry x="-88" y="467" width="183" height="30" as="geometry" />
        </mxCell>
        <mxCell id="9mC6WxwAKgtIo9bbNM0V-54" value="Service for Data" style="rounded=0;whiteSpace=wrap;html=1;shadow=0;fontSize=14;fillColor=#eeeeee;strokeColor=#36393d;" vertex="1" parent="1">
          <mxGeometry x="-90" y="507" width="183" height="30" as="geometry" />
        </mxCell>
        <mxCell id="9mC6WxwAKgtIo9bbNM0V-60" value="&lt;font style=&quot;font-size: 14px;&quot;&gt;Ui Library&lt;/font&gt;" style="rounded=1;whiteSpace=wrap;html=1;shadow=0;fontSize=10;fillColor=#f5f5f5;gradientColor=#b3b3b3;strokeColor=#666666;" vertex="1" parent="1">
          <mxGeometry x="-110" y="720" width="220" height="30" as="geometry" />
        </mxCell>
        <mxCell id="9mC6WxwAKgtIo9bbNM0V-61" value="&lt;font style=&quot;font-size: 14px;&quot;&gt;User &amp;amp; Auth Library&lt;/font&gt;" style="rounded=1;whiteSpace=wrap;html=1;shadow=0;fontSize=10;fillColor=#dae8fc;gradientColor=#7ea6e0;strokeColor=#6c8ebf;" vertex="1" parent="1">
          <mxGeometry x="150" y="719" width="220" height="30" as="geometry" />
        </mxCell>
        <mxCell id="9mC6WxwAKgtIo9bbNM0V-62" value="&lt;span style=&quot;font-size: 14px;&quot;&gt;Product &amp;amp; Category Lib&lt;/span&gt;" style="rounded=1;whiteSpace=wrap;html=1;shadow=0;fontSize=10;fillColor=#f8cecc;gradientColor=#ea6b66;strokeColor=#b85450;" vertex="1" parent="1">
          <mxGeometry x="410" y="719" width="220" height="30" as="geometry" />
        </mxCell>
        <mxCell id="9mC6WxwAKgtIo9bbNM0V-63" value="&lt;span style=&quot;font-size: 14px;&quot;&gt;Order Library&lt;/span&gt;" style="rounded=1;whiteSpace=wrap;html=1;shadow=0;fontSize=10;fillColor=#e6d0de;gradientColor=#d5739d;strokeColor=#996185;" vertex="1" parent="1">
          <mxGeometry x="670" y="719" width="220" height="30" as="geometry" />
        </mxCell>
        <mxCell id="9mC6WxwAKgtIo9bbNM0V-65" value="Login Component" style="rounded=0;whiteSpace=wrap;html=1;shadow=0;fontSize=14;" vertex="1" parent="1">
          <mxGeometry x="169.5" y="387" width="183" height="30" as="geometry" />
        </mxCell>
        <mxCell id="9mC6WxwAKgtIo9bbNM0V-66" value="Register Component" style="rounded=0;whiteSpace=wrap;html=1;shadow=0;fontSize=14;" vertex="1" parent="1">
          <mxGeometry x="169.5" y="427" width="183" height="30" as="geometry" />
        </mxCell>
        <mxCell id="9mC6WxwAKgtIo9bbNM0V-67" value="User Service" style="rounded=0;whiteSpace=wrap;html=1;shadow=0;fontSize=14;" vertex="1" parent="1">
          <mxGeometry x="169.5" y="467" width="183" height="30" as="geometry" />
        </mxCell>
        <mxCell id="9mC6WxwAKgtIo9bbNM0V-68" value="Auth Service" style="rounded=0;whiteSpace=wrap;html=1;shadow=0;fontSize=14;" vertex="1" parent="1">
          <mxGeometry x="169.5" y="507" width="183" height="30" as="geometry" />
        </mxCell>
        <mxCell id="9mC6WxwAKgtIo9bbNM0V-69" value="&lt;font style=&quot;font-size: 12px;&quot;&gt;&lt;b&gt;User State Store For Session&lt;/b&gt;&lt;/font&gt;" style="rounded=0;whiteSpace=wrap;html=1;shadow=0;fontSize=14;" vertex="1" parent="1">
          <mxGeometry x="169.5" y="547" width="183" height="30" as="geometry" />
        </mxCell>
        <mxCell id="9mC6WxwAKgtIo9bbNM0V-70" value="Products Services" style="rounded=0;whiteSpace=wrap;html=1;shadow=0;fontSize=14;" vertex="1" parent="1">
          <mxGeometry x="428.5" y="380" width="183" height="30" as="geometry" />
        </mxCell>
        <mxCell id="9mC6WxwAKgtIo9bbNM0V-71" value="Categories Services" style="rounded=0;whiteSpace=wrap;html=1;shadow=0;fontSize=14;" vertex="1" parent="1">
          <mxGeometry x="428.5" y="427" width="183" height="30" as="geometry" />
        </mxCell>
        <mxCell id="9mC6WxwAKgtIo9bbNM0V-72" value="Order Servides" style="rounded=0;whiteSpace=wrap;html=1;shadow=0;fontSize=14;" vertex="1" parent="1">
          <mxGeometry x="690" y="380" width="183" height="30" as="geometry" />
        </mxCell>
        <mxCell id="9mC6WxwAKgtIo9bbNM0V-73" value="Order State Store for Cart" style="rounded=0;whiteSpace=wrap;html=1;shadow=0;fontSize=14;" vertex="1" parent="1">
          <mxGeometry x="690" y="427" width="183" height="30" as="geometry" />
        </mxCell>
        <mxCell id="9mC6WxwAKgtIo9bbNM0V-80" value="" style="endArrow=none;html=1;rounded=0;fontSize=14;edgeStyle=elbowEdgeStyle;elbow=vertical;fillColor=#cce5ff;strokeColor=#78B6F5;strokeWidth=4;" edge="1" parent="1" source="9mC6WxwAKgtIo9bbNM0V-46">
          <mxGeometry width="50" height="50" relative="1" as="geometry">
            <mxPoint x="380" y="250" as="sourcePoint" />
            <mxPoint x="750" y="220" as="targetPoint" />
          </mxGeometry>
        </mxCell>
        <mxCell id="9mC6WxwAKgtIo9bbNM0V-81" value="" style="endArrow=none;html=1;rounded=0;fontSize=14;elbow=vertical;exitX=0.37;exitY=0.001;exitDx=0;exitDy=0;exitPerimeter=0;strokeColor=#78B6F5;strokeWidth=4;" edge="1" parent="1" source="9mC6WxwAKgtIo9bbNM0V-47">
          <mxGeometry width="50" height="50" relative="1" as="geometry">
            <mxPoint x="230" y="350" as="sourcePoint" />
            <mxPoint x="230" y="290" as="targetPoint" />
          </mxGeometry>
        </mxCell>
        <mxCell id="9mC6WxwAKgtIo9bbNM0V-83" value="" style="endArrow=none;html=1;rounded=0;fontSize=14;elbow=vertical;exitX=0.409;exitY=-0.003;exitDx=0;exitDy=0;exitPerimeter=0;strokeColor=#78B6F5;strokeWidth=4;" edge="1" parent="1" source="9mC6WxwAKgtIo9bbNM0V-48">
          <mxGeometry width="50" height="50" relative="1" as="geometry">
            <mxPoint x="520" y="350" as="sourcePoint" />
            <mxPoint x="500" y="290" as="targetPoint" />
          </mxGeometry>
        </mxCell>
        <mxCell id="9mC6WxwAKgtIo9bbNM0V-84" value="" style="endArrow=none;html=1;rounded=0;fontSize=14;elbow=vertical;fillColor=#cce5ff;strokeColor=#78B6F5;strokeWidth=4;" edge="1" parent="1">
          <mxGeometry width="50" height="50" relative="1" as="geometry">
            <mxPoint x="730" y="360" as="sourcePoint" />
            <mxPoint x="731" y="290" as="targetPoint" />
          </mxGeometry>
        </mxCell>
        <mxCell id="9mC6WxwAKgtIo9bbNM0V-86" value="" style="endArrow=none;html=1;rounded=0;fontSize=14;elbow=vertical;entryX=0.479;entryY=1.011;entryDx=0;entryDy=0;entryPerimeter=0;exitX=0.587;exitY=0;exitDx=0;exitDy=0;exitPerimeter=0;fillColor=#e51400;strokeColor=#B20000;strokeWidth=4;" edge="1" parent="1" source="9mC6WxwAKgtIo9bbNM0V-49" target="9mC6WxwAKgtIo9bbNM0V-2">
          <mxGeometry width="50" height="50" relative="1" as="geometry">
            <mxPoint x="380" y="350" as="sourcePoint" />
            <mxPoint x="430" y="300" as="targetPoint" />
            <Array as="points">
              <mxPoint x="800" y="260" />
              <mxPoint x="100" y="260" />
              <mxPoint x="67" y="260" />
            </Array>
          </mxGeometry>
        </mxCell>
        <mxCell id="9mC6WxwAKgtIo9bbNM0V-92" value="" style="endArrow=none;html=1;rounded=0;fontSize=14;elbow=vertical;exitX=1;exitY=0;exitDx=0;exitDy=0;fillColor=#76608a;strokeColor=#432D57;entryX=0.75;entryY=0;entryDx=0;entryDy=0;strokeWidth=4;" edge="1" parent="1" source="9mC6WxwAKgtIo9bbNM0V-47" target="9mC6WxwAKgtIo9bbNM0V-46">
          <mxGeometry width="50" height="50" relative="1" as="geometry">
            <mxPoint x="390" y="270" as="sourcePoint" />
            <mxPoint x="60" y="320" as="targetPoint" />
            <Array as="points">
              <mxPoint x="376" y="320" />
              <mxPoint x="59" y="320" />
            </Array>
          </mxGeometry>
        </mxCell>
        <mxCell id="9mC6WxwAKgtIo9bbNM0V-94" value="" style="endArrow=none;html=1;rounded=0;fontSize=14;elbow=vertical;entryX=0.25;entryY=1;entryDx=0;entryDy=0;fillColor=#76608a;strokeColor=#432D57;strokeWidth=4;" edge="1" parent="1" target="9mC6WxwAKgtIo9bbNM0V-3">
          <mxGeometry width="50" height="50" relative="1" as="geometry">
            <mxPoint x="366" y="320" as="sourcePoint" />
            <mxPoint x="430" y="300" as="targetPoint" />
          </mxGeometry>
        </mxCell>
        <mxCell id="9mC6WxwAKgtIo9bbNM0V-98" value="" style="endArrow=none;html=1;rounded=0;fontSize=14;strokeColor=#B20000;strokeWidth=4;elbow=vertical;exitX=0.804;exitY=0;exitDx=0;exitDy=0;exitPerimeter=0;" edge="1" parent="1" source="9mC6WxwAKgtIo9bbNM0V-48">
          <mxGeometry width="50" height="50" relative="1" as="geometry">
            <mxPoint x="380" y="350" as="sourcePoint" />
            <mxPoint x="590" y="260" as="targetPoint" />
          </mxGeometry>
        </mxCell>
        <mxCell id="9mC6WxwAKgtIo9bbNM0V-99" value="" style="endArrow=none;html=1;rounded=0;fontSize=14;strokeColor=#B20000;strokeWidth=4;elbow=vertical;exitX=0.592;exitY=0.001;exitDx=0;exitDy=0;exitPerimeter=0;" edge="1" parent="1" source="9mC6WxwAKgtIo9bbNM0V-47">
          <mxGeometry width="50" height="50" relative="1" as="geometry">
            <mxPoint x="380" y="350" as="sourcePoint" />
            <mxPoint x="283" y="260" as="targetPoint" />
          </mxGeometry>
        </mxCell>
        <mxCell id="9mC6WxwAKgtIo9bbNM0V-100" value="" style="endArrow=none;html=1;rounded=0;fontSize=14;strokeColor=#B20000;strokeWidth=4;elbow=vertical;exitX=0.907;exitY=-0.003;exitDx=0;exitDy=0;exitPerimeter=0;" edge="1" parent="1" source="9mC6WxwAKgtIo9bbNM0V-46">
          <mxGeometry width="50" height="50" relative="1" as="geometry">
            <mxPoint x="380" y="270" as="sourcePoint" />
            <mxPoint x="95" y="260" as="targetPoint" />
          </mxGeometry>
        </mxCell>
      </root>
    </mxGraphModel>
  </diagram>
</mxfile>
